<?xml version="1.0" standalone="no"?>
<!DOCTYPE svg PUBLIC "-//W3C//DTD SVG 20010904//EN"
 "http://www.w3.org/TR/2001/REC-SVG-20010904/DTD/svg10.dtd">
<svg version="1.0" xmlns="http://www.w3.org/2000/svg"
 width="684.000000pt" height="684.000000pt" viewBox="0 0 684.000000 684.000000"
 preserveAspectRatio="xMidYMid meet">

<g transform="translate(0.000000,684.000000) scale(0.100000,-0.100000)"
fill="#000000" stroke="none">
<path d="M3035 6824 c-629 -69 -1261 -332 -1770 -740 -141 -113 -396 -368
-509 -509 -413 -516 -674 -1146 -741 -1787 -20 -191 -20 -545 0 -736 67 -641
328 -1271 741 -1787 113 -141 368 -396 509 -509 516 -413 1146 -674 1787 -741
191 -20 545 -20 736 0 571 60 1140 275 1612 609 305 217 599 511 816 816 338
477 547 1031 609 1616 19 183 19 543 0 732 -67 641 -328 1271 -741 1787 -113
141 -368 396 -509 509 -516 413 -1146 674 -1787 741 -184 19 -573 18 -753 -1z
m-90 -2449 l0 -40 -107 -3 -106 -3 -117 -290 -116 -291 173 -424 c95 -233 175
-424 178 -424 3 0 122 318 265 706 143 389 262 711 263 715 2 5 -60 9 -137 9
l-141 0 0 45 0 45 291 0 290 0 -3 -42 -3 -43 -102 -3 c-57 -1 -103 -4 -103 -6
0 -4 -698 -1885 -715 -1928 -4 -11 -18 -18 -35 -18 -27 0 -31 9 -211 450 -101
248 -186 450 -189 450 -3 0 -86 -203 -184 -450 l-180 -450 -30 0 -31 1 -391
972 -391 972 -112 3 -111 3 0 44 0 45 1028 -2 1027 -3 0 -40z m2230 35 c184
-21 265 -53 360 -141 102 -96 153 -220 142 -344 -20 -214 -164 -340 -479 -420
-73 -18 -126 -36 -118 -38 8 -3 47 -15 85 -28 131 -41 265 -123 324 -198 77
-97 121 -255 121 -434 0 -138 16 -213 55 -256 30 -32 38 -35 97 -39 35 -2 81
1 101 6 l37 10 0 -39 c0 -34 -4 -41 -27 -50 -65 -25 -189 -41 -267 -35 -156
11 -254 65 -325 174 -60 94 -64 117 -70 367 l-6 230 -31 65 c-76 161 -163 199
-446 200 l-148 0 0 -465 0 -465 156 0 155 0 -3 -42 -3 -43 -485 0 -485 0 0 40
0 40 153 3 152 3 0 909 0 909 -152 3 -153 3 -3 28 c-7 61 -45 57 590 57 328 0
622 -5 673 -10z"/>
<path d="M1475 4321 c3 -5 134 -328 291 -718 157 -389 289 -712 293 -716 7 -7
211 495 211 517 0 8 -300 756 -352 879 l-20 47 -215 0 c-128 0 -212 -4 -208
-9z"/>
<path d="M2270 4324 c0 -7 169 -424 180 -443 6 -11 62 120 187 437 4 9 -36 12
-181 12 -102 0 -186 -3 -186 -6z"/>
<path d="M4580 3926 l0 -406 168 0 c190 0 324 13 382 36 58 23 107 85 133 169
19 60 22 93 22 225 0 97 -5 171 -13 197 -19 63 -70 124 -127 153 -49 24 -56
25 -307 28 l-258 3 0 -405z"/>
</g>
</svg>
